<?xml version="1.0" encoding="UTF-8" standalone="no"?>
<!-- Created with Inkscape (http://www.inkscape.org/) -->

<svg
   width="41.996082mm"
   height="41.310345mm"
   viewBox="0 0 41.996082 41.310345"
   version="1.1"
   id="svg1"
   xml:space="preserve"
   xmlns="http://www.w3.org/2000/svg"
   xmlns:svg="http://www.w3.org/2000/svg"><defs
     id="defs1" /><g
     id="layer1"
     transform="translate(-10.919379,-100.33444)"><path
       d="m 44.368521,115.52912 h 7.22797 l 1.318972,-5.11761 h -6.753139 l 3.534846,-10.07695 h -5.486925 l -3.534847,10.07695 H 30.334654 L 33.8695,100.33456 h -5.486925 l -3.534847,10.07695 h -8.019352 l -1.371732,5.11761 h 7.597282 l -3.534846,10.07695 h -7.280729 l -1.318972,5.11761 h 6.805898 l -3.8514,10.9211 h 5.486926 l 3.8514,-10.9211 h 10.340744 l -3.8514,10.9211 h 5.486926 l 3.851399,-10.9211 h 7.966594 l 1.371732,-5.11761 h -7.597282 z m -15.880429,0 h 10.446263 l -3.587606,10.07695 H 24.953246 Z"
       id="text6"
       style="font-style:italic;font-weight:500;font-size:52.7589px;font-family:Gordita;-inkscape-font-specification:'Gordita Medium Italic';display:inline;fill:#0981bb;fill-opacity:1;stroke-width:10.6823;stroke-linejoin:round;stroke-dasharray:7.43974, 7.43974;stroke-dashoffset:17.1114;paint-order:markers fill stroke"
       aria-label="#" /><path
       id="path10"
       style="font-style:italic;font-weight:500;font-size:52.7589px;font-family:Gordita;-inkscape-font-specification:'Gordita Medium Italic';fill:#555555;fill-opacity:1;stroke-width:10.6823;stroke-linejoin:round;stroke-dasharray:7.43974, 7.43974;stroke-dashoffset:17.1114;paint-order:markers fill stroke"
       d="m 28.382764,100.33444 -3.535185,10.07691 h 5.487004 l 3.534667,-10.07691 z m 15.827457,0 -3.534668,10.07691 h 5.487004 l 3.534668,-10.07691 z m -5.275647,15.19443 -3.587894,10.07742 h 5.434293 l 3.587378,-10.07742 z m -21.209041,15.19493 -3.851444,10.92078 h 5.486486 L 23.21202,130.7238 Z m 15.827458,0 -3.851445,10.92078 h 5.487004 l 3.851444,-10.92078 z" /></g></svg>
